<svg width="30" height="30" viewBox="0 0 30 30" fill="none" xmlns="http://www.w3.org/2000/svg">
<path d="M22.5 12C22.5 10.3772 21.9737 8.79822 21 7.5M19.5 12C19.5 10.8065 19.0259 9.66193 18.182 8.81802C17.3381 7.97411 16.1935 7.5 15 7.5C13.8065 7.5 12.6619 7.97411 11.818 8.81802C10.9741 9.66193 10.5 10.8065 10.5 12C10.5 17.25 8.25 18.75 8.25 18.75H21.75C21.75 18.75 19.5 17.25 19.5 12ZM16.2975 21.75C16.1656 21.9773 15.9764 22.166 15.7487 22.2971C15.521 22.4283 15.2628 22.4973 15 22.4973C14.7372 22.4973 14.479 22.4283 14.2513 22.2971C14.0236 22.166 13.8344 21.9773 13.7025 21.75H16.2975ZM7.5 12C7.5 10.35 8.025 8.775 9 7.5L7.5 12Z" stroke="#07C5AF" stroke-width="1.66667" stroke-linecap="round" stroke-linejoin="round"/>
<rect width="30" height="30" rx="15" fill="#07C5AF" fill-opacity="0.1"/>
</svg>
