<svg width="30" height="30" viewBox="0 0 30 30" fill="none" xmlns="http://www.w3.org/2000/svg">
<path d="M24.7633 15.5086C25.157 14.9883 25.375 14.3508 25.375 13.6875C25.375 12.6352 24.7867 11.6391 23.8398 11.0836C23.5961 10.9406 23.3185 10.8654 23.0359 10.8656H17.4156L17.5563 7.98517C17.5891 7.28907 17.343 6.62814 16.8648 6.12423C16.6302 5.87586 16.3471 5.67824 16.0331 5.5436C15.7191 5.40896 15.3807 5.34015 15.0391 5.34142C13.8203 5.34142 12.7422 6.16173 12.4188 7.33595L10.4055 14.625H7.375C6.96016 14.625 6.625 14.9602 6.625 15.375V23.9063C6.625 24.3211 6.96016 24.6563 7.375 24.6563H21.468C21.6836 24.6563 21.8945 24.6141 22.0891 24.5297C23.2047 24.0539 23.9242 22.9641 23.9242 21.7547C23.9242 21.4594 23.882 21.1688 23.7977 20.8875C24.1914 20.3672 24.4094 19.7297 24.4094 19.0664C24.4094 18.7711 24.3672 18.4805 24.2828 18.1992C24.6766 17.6789 24.8945 17.0414 24.8945 16.3781C24.8898 16.0828 24.8477 15.7899 24.7633 15.5086ZM8.3125 22.9688V16.3125H10.2109V22.9688H8.3125ZM23.2281 14.6953L22.7148 15.1406L23.0406 15.7359C23.148 15.9321 23.2036 16.1522 23.2023 16.3758C23.2023 16.7625 23.0336 17.1305 22.743 17.3836L22.2297 17.8289L22.5555 18.4242C22.6628 18.6203 22.7185 18.8405 22.7172 19.0641C22.7172 19.4508 22.5484 19.8188 22.2578 20.0719L21.7445 20.5172L22.0703 21.1125C22.1776 21.3086 22.2333 21.5288 22.232 21.7524C22.232 22.2774 21.9227 22.7508 21.4445 22.9664H11.7109V16.2375L14.043 7.78829C14.1031 7.57173 14.2322 7.38067 14.4107 7.24407C14.5891 7.10746 14.8073 7.03275 15.032 7.03126C15.2102 7.03126 15.3859 7.08282 15.5266 7.18829C15.7586 7.36173 15.8828 7.62423 15.8687 7.90314L15.6437 12.5531H23.0125C23.4297 12.8086 23.6875 13.2399 23.6875 13.6875C23.6875 14.0742 23.5188 14.4399 23.2281 14.6953Z" fill="#07C5AF"/>
<rect width="30" height="30" rx="15" fill="#07C5AF" fill-opacity="0.1"/>
</svg>
