<svg width="61" height="61" viewBox="0 0 61 61" fill="none" xmlns="http://www.w3.org/2000/svg">
<mask id="mask0_1_2310" style="mask-type:alpha" maskUnits="userSpaceOnUse" x="0" y="0" width="61" height="61">
<path d="M48.7236 50.4889L49.9341 21.8306C51.5848 22.3664 53.0811 23.2941 54.295 24.5343C55.5089 25.7746 56.4043 27.2905 56.9045 28.9523C57.7317 31.9785 57.0256 34.8736 55.0686 40.4015C53.7746 44.0642 51.742 47.4221 49.0969 50.267C48.9829 50.3573 48.8574 50.4319 48.7236 50.4889Z" fill="#07C5AF"/>
<path d="M6.20514 36.8104L29.2953 51.7802C28.458 52.3854 24.1708 55.3612 19.6113 54.302C18.5575 54.0817 17.5526 53.6715 16.6456 53.0915C12.0299 50.1195 8.57271 45.6547 6.85073 40.4419C6.56035 39.246 6.34473 38.0331 6.20514 36.8104Z" fill="#07C5AF"/>
<path d="M22.6678 55.9866L47.503 44.5979C47.7955 45.4049 49.5911 50.6504 45.9899 53.7976C44.4667 55.109 42.5097 55.5327 39.2414 56.3296C36.369 57.0187 33.418 57.324 30.4654 57.2374C27.8426 57.1668 25.2502 56.6019 22.6375 56.2287L22.6678 55.9866Z" fill="#07C5AF"/>
<path d="M33.7841 9.01957C34.4499 8.65642 39.4936 6.04378 44.6584 7.71829C48.5118 8.96913 50.4586 11.9853 52.4559 14.8501C53.5747 16.4367 54.436 18.19 55.0081 20.0451C55.4519 21.5078 55.7041 22.9907 56.1076 24.7055L33.7841 9.01957Z" fill="#07C5AF"/>
<path d="M10.6738 38.5454C10.6738 38.5454 5.89239 36.1849 4.69199 31.9684C4.2263 30.2748 4.25079 28.4838 4.7626 26.8036C6.37659 20.2266 9.24141 14.6987 13.7808 10.6638C14.0132 10.5067 14.2597 10.3717 14.5171 10.2603L10.6738 38.5454Z" fill="#07C5AF"/>
<path d="M40.4418 5.25693L15.5864 15.8588C15.5864 15.6974 15.5158 15.4654 15.4754 15.183C14.9812 11.9247 14.6685 9.78618 16.1816 8.12176C16.8686 7.39628 17.7246 6.85218 18.6732 6.53803C24.0282 4.5387 29.7727 3.80338 35.4586 4.38941C37.0827 4.53064 38.7068 4.95431 40.4418 5.25693Z" fill="#07C5AF"/>
<path d="M30.7881 34.9241C31.609 34.926 32.4119 34.6843 33.0953 34.2295C33.7786 33.7747 34.3116 33.1273 34.6266 32.3694C34.9417 31.6114 35.0246 30.7769 34.865 29.9718C34.7053 29.1666 34.3103 28.4269 33.7298 27.8465C33.1494 27.2661 32.4097 26.871 31.6046 26.7114C30.7994 26.5517 29.965 26.6347 29.207 26.9497C28.449 27.2648 27.8016 27.7977 27.3468 28.4811C26.892 29.1644 26.6503 29.9674 26.6523 30.7882C26.655 31.8843 27.0916 32.9347 27.8666 33.7097C28.6416 34.4848 29.6921 34.9214 30.7881 34.9241Z" fill="#07C5AF"/>
<path d="M32.0491 29.4667C32.1768 29.4667 32.3016 29.4289 32.4078 29.3579C32.5139 29.287 32.5967 29.1862 32.6456 29.0682C32.6944 28.9502 32.7072 28.8204 32.6823 28.6952C32.6574 28.5699 32.5959 28.4549 32.5056 28.3646C32.4153 28.2743 32.3003 28.2129 32.175 28.1879C32.0498 28.163 31.92 28.1758 31.802 28.2247C31.6841 28.2735 31.5832 28.3563 31.5123 28.4625C31.4414 28.5686 31.4035 28.6934 31.4035 28.8211C31.4035 28.9924 31.4715 29.1566 31.5926 29.2776C31.7137 29.3987 31.8779 29.4667 32.0491 29.4667Z" fill="white"/>
<path d="M32.6846 29.5272C32.7702 29.5272 32.8523 29.4932 32.9129 29.4326C32.9734 29.3721 33.0074 29.29 33.0074 29.2044C33.0074 29.1188 32.9734 29.0367 32.9129 28.9761C32.8523 28.9156 32.7702 28.8816 32.6846 28.8816C32.599 28.8816 32.5169 28.9156 32.4564 28.9761C32.3958 29.0367 32.3618 29.1188 32.3618 29.2044C32.3643 29.2892 32.3992 29.3698 32.4592 29.4298C32.5192 29.4898 32.5998 29.5247 32.6846 29.5272Z" fill="white"/>
<path d="M21.2757 25.5528C19.9294 27.9757 19.5525 30.8192 20.2211 33.5092C20.8898 36.1991 22.5542 38.5352 24.8782 40.0458C27.2023 41.5563 30.0129 42.1288 32.7427 41.6476C35.4724 41.1665 37.9179 39.6675 39.5855 37.4534C41.253 35.2393 42.0184 32.4749 41.727 29.7184C41.4356 26.962 40.1092 24.4187 38.0157 22.6022C35.9221 20.7856 33.2172 19.831 30.4472 19.9312C27.6772 20.0314 25.0483 21.1789 23.0914 23.1419" stroke="#07C5AF" stroke-width="0.75863" stroke-miterlimit="10" stroke-linecap="round"/>
<path d="M35.4586 33.2596C35.8562 32.5212 36.073 31.6991 36.0915 30.8608C36.1099 30.0224 35.9293 29.1916 35.5646 28.4365C35.1999 27.6814 34.6614 27.0235 33.9933 26.5167C33.3252 26.01 32.5464 25.6688 31.721 25.5211C30.8955 25.3735 30.0468 25.4236 29.2444 25.6673C28.4421 25.9111 27.7089 26.3415 27.1051 26.9234C26.5012 27.5053 26.0439 28.222 25.7705 29.0148C25.4972 29.8075 25.4157 30.6538 25.5326 31.4842C25.6575 32.4768 26.0605 33.414 26.6951 34.1874C27.3297 34.9609 28.1701 35.5392 29.1192 35.8556C30.0684 36.1719 31.0876 36.2135 32.0594 35.9755C33.0311 35.7375 33.9158 35.2296 34.6113 34.5104" stroke="#07C5AF" stroke-width="0.370255" stroke-miterlimit="10" stroke-linecap="round"/>
<path d="M30.7377 60.4755C36.6193 60.4755 42.3688 58.7314 47.2591 55.4638C52.1495 52.1961 55.961 47.5517 58.2118 42.1179C60.4626 36.684 61.0515 30.7048 59.9041 24.9362C58.7566 19.1676 55.9244 13.8689 51.7655 9.70999C47.6066 5.5511 42.3078 2.71885 36.5393 1.57142C30.7707 0.423979 24.7915 1.01288 19.3576 3.26366C13.9237 5.51444 9.27934 9.326 6.01171 14.2163C2.74409 19.1067 1 24.8562 1 30.7377C0.998676 34.6433 1.76696 38.5109 3.26095 42.1194C4.75494 45.728 6.94536 49.0068 9.70702 51.7684C12.4687 54.5301 15.7475 56.7205 19.356 58.2145C22.9646 59.7085 26.8321 60.4768 30.7377 60.4755V60.4755Z" stroke="#07C5AF" stroke-width="0.532197" stroke-miterlimit="10"/>
</mask>
<g mask="url(#mask0_1_2310)">
<rect width="70" height="70" transform="matrix(0.597041 0.802211 0.802211 -0.597041 -14 21.8225)" fill="url(#paint0_linear_1_2310)"/>
</g>
<defs>
<linearGradient id="paint0_linear_1_2310" x1="20.7494" y1="34.9295" x2="63.5794" y2="31.7192" gradientUnits="userSpaceOnUse">
<stop stop-color="#07C5AF"/>
<stop offset="1" stop-color="#FF00D6" stop-opacity="0.59"/>
</linearGradient>
</defs>
</svg>
