<svg width="62" height="61" viewBox="0 0 62 61" fill="none" xmlns="http://www.w3.org/2000/svg">
<path d="M48.9859 50.4889L50.1964 21.8305C51.8471 22.3663 53.3434 23.294 54.5573 24.5343C55.7712 25.7746 56.6666 27.2905 57.1668 28.9523C57.994 31.9785 57.2878 34.8736 55.3309 40.4015C54.0368 44.0642 52.0042 47.4221 49.3591 50.267C49.2451 50.3572 49.1196 50.4319 48.9859 50.4889Z" fill="#07C5AF"/>
<path d="M6.46741 36.8104L29.5575 51.7801C28.7203 52.3853 24.4331 55.3611 19.8736 54.302C18.8198 54.0816 17.8149 53.6715 16.9079 53.0915C12.2922 50.1194 8.83498 45.6546 7.113 40.4418C6.82261 39.2459 6.607 38.0331 6.46741 36.8104Z" fill="#07C5AF"/>
<path d="M22.93 55.9866L47.7653 44.5979C48.0578 45.4049 49.8534 50.6503 46.2522 53.7976C44.729 55.109 42.772 55.5326 39.5037 56.3295C36.6313 57.0187 33.6802 57.324 30.7276 57.2374C28.1049 57.1668 25.5124 56.6019 22.8998 56.2287L22.93 55.9866Z" fill="#07C5AF"/>
<path d="M34.0464 9.01951C34.7122 8.65636 39.7559 6.04372 44.9206 7.71823C48.774 8.96907 50.7209 11.9852 52.7182 14.85C53.8369 16.4367 54.6982 18.1899 55.2703 20.0451C55.7142 21.5077 55.9664 22.9906 56.3699 24.7055L34.0464 9.01951Z" fill="#07C5AF"/>
<path d="M10.9361 38.5454C10.9361 38.5454 6.15466 36.1849 4.95425 31.9684C4.48857 30.2748 4.51305 28.4838 5.02487 26.8036C6.63885 20.2266 9.50368 14.6987 14.043 10.6638C14.2755 10.5067 14.522 10.3717 14.7794 10.2603L10.9361 38.5454Z" fill="#07C5AF"/>
<path d="M40.7041 5.2569L15.8487 15.8588C15.8487 15.6974 15.7781 15.4654 15.7377 15.1829C15.2434 11.9247 14.9307 9.78615 16.4438 8.12173C17.1309 7.39625 17.9869 6.85215 18.9354 6.538C24.2905 4.53867 30.0349 3.80335 35.7209 4.38938C37.345 4.5306 38.9691 4.95428 40.7041 5.2569Z" fill="#07C5AF"/>
<path d="M31.0504 34.924C31.8713 34.926 32.6742 34.6843 33.3576 34.2295C34.0409 33.7747 34.5738 33.1273 34.8889 32.3693C35.2039 31.6114 35.2869 30.7769 35.1272 29.9717C34.9676 29.1666 34.5725 28.4269 33.9921 27.8465C33.4117 27.2661 32.672 26.871 31.8668 26.7113C31.0617 26.5517 30.2272 26.6347 29.4692 26.9497C28.7113 27.2647 28.0639 27.7977 27.6091 28.481C27.1543 29.1644 26.9126 29.9673 26.9146 30.7882C26.9172 31.8843 27.3538 32.9347 28.1289 33.7097C28.9039 34.4848 29.9543 34.9214 31.0504 34.924Z" fill="#07C5AF"/>
<path d="M32.3114 29.4667C32.4391 29.4667 32.5639 29.4289 32.67 29.3579C32.7762 29.287 32.859 29.1862 32.9078 29.0682C32.9567 28.9502 32.9695 28.8204 32.9446 28.6952C32.9196 28.5699 32.8582 28.4549 32.7679 28.3646C32.6776 28.2743 32.5625 28.2129 32.4373 28.1879C32.3121 28.163 32.1823 28.1758 32.0643 28.2247C31.9463 28.2735 31.8455 28.3563 31.7746 28.4625C31.7036 28.5686 31.6658 28.6934 31.6658 28.8211C31.6658 28.9924 31.7338 29.1566 31.8549 29.2776C31.9759 29.3987 32.1401 29.4667 32.3114 29.4667Z" fill="white"/>
<path d="M32.9469 29.5272C33.0325 29.5272 33.1146 29.4932 33.1751 29.4327C33.2357 29.3722 33.2697 29.2901 33.2697 29.2045C33.2697 29.1188 33.2357 29.0367 33.1751 28.9762C33.1146 28.9157 33.0325 28.8817 32.9469 28.8817C32.8613 28.8817 32.7792 28.9157 32.7186 28.9762C32.6581 29.0367 32.6241 29.1188 32.6241 29.2045C32.6266 29.2893 32.6614 29.3699 32.7214 29.4299C32.7814 29.4899 32.8621 29.5247 32.9469 29.5272Z" fill="white"/>
<path d="M21.538 25.5528C20.1916 27.9757 19.8148 30.8192 20.4834 33.5092C21.152 36.1991 22.8164 38.5352 25.1405 40.0458C27.4646 41.5563 30.2752 42.1288 33.0049 41.6476C35.7347 41.1665 38.1802 39.6675 39.8477 37.4534C41.5153 35.2393 42.2806 32.4749 41.9893 29.7184C41.6979 26.962 40.3715 24.4187 38.2779 22.6022C36.1843 20.7856 33.4795 19.831 30.7095 19.9312C27.9394 20.0314 25.3106 21.1789 23.3537 23.1419" stroke="#07C5AF" stroke-width="0.75863" stroke-miterlimit="10" stroke-linecap="round"/>
<path d="M35.7209 33.2596C36.1184 32.5212 36.3353 31.6992 36.3537 30.8608C36.3722 30.0224 36.1916 29.1916 35.8269 28.4365C35.4622 27.6814 34.9237 27.0235 34.2556 26.5168C33.5874 26.01 32.8087 25.6688 31.9832 25.5212C31.1578 25.3735 30.3091 25.4236 29.5067 25.6674C28.7043 25.9111 27.9712 26.3416 27.3673 26.9234C26.7635 27.5053 26.3061 28.222 26.0328 29.0148C25.7595 29.8076 25.6779 30.6538 25.7949 31.4842C25.9198 32.4769 26.3228 33.414 26.9574 34.1875C27.592 34.9609 28.4323 35.5392 29.3815 35.8556C30.3306 36.172 31.3499 36.2136 32.3216 35.9755C33.2934 35.7375 34.1781 35.2296 34.8736 34.5104" stroke="#07C5AF" stroke-width="0.370255" stroke-miterlimit="10" stroke-linecap="round"/>
<path d="M31 60.4755C36.8816 60.4755 42.631 58.7314 47.5214 55.4638C52.4117 52.1961 56.2233 47.5517 58.4741 42.1179C60.7249 36.684 61.3138 30.7048 60.1663 24.9362C59.0189 19.1676 56.1866 13.8689 52.0277 9.70999C47.8688 5.5511 42.5701 2.71885 36.8015 1.57142C31.033 0.423979 25.0537 1.01288 19.6199 3.26366C14.186 5.51444 9.5416 9.326 6.27398 14.2163C3.00636 19.1067 1.26227 24.8562 1.26227 30.7377C1.26094 34.6433 2.02923 38.5109 3.52322 42.1194C5.01721 45.728 7.20763 49.0068 9.96929 51.7684C12.731 54.5301 16.0097 56.7205 19.6183 58.2145C23.2268 59.7085 27.0944 60.4768 31 60.4755V60.4755Z" stroke="#07C5AF" stroke-width="0.532197" stroke-miterlimit="10"/>
</svg>
