<svg width="18" height="18" viewBox="0 0 18 18" fill="none" xmlns="http://www.w3.org/2000/svg">
<path d="M17.3084 14.2756C17.3084 14.5756 17.2417 14.8839 17.1 15.1839C16.9584 15.4839 16.775 15.7672 16.5334 16.0339C16.125 16.4839 15.675 16.8089 15.1667 17.0172C14.6667 17.2256 14.125 17.3339 13.5417 17.3339C12.6917 17.3339 11.7834 17.1339 10.825 16.7256C9.86669 16.3172 8.90835 15.7672 7.95835 15.0756C7.00002 14.3756 6.09169 13.6006 5.22502 12.7422C4.36669 11.8756 3.59169 10.9672 2.90002 10.0172C2.21669 9.06724 1.66669 8.11724 1.26669 7.17557C0.866687 6.22557 0.666687 5.31724 0.666687 4.45057C0.666687 3.8839 0.766687 3.34224 0.966687 2.84224C1.16669 2.3339 1.48335 1.86724 1.92502 1.45057C2.45835 0.92557 3.04169 0.667236 3.65835 0.667236C3.89169 0.667236 4.12502 0.717236 4.33335 0.817236C4.55002 0.917236 4.74169 1.06724 4.89169 1.2839L6.82502 4.0089C6.97502 4.21724 7.08335 4.4089 7.15835 4.59224C7.23335 4.76724 7.27502 4.94224 7.27502 5.10057C7.27502 5.30057 7.21669 5.50057 7.10002 5.69224C6.99169 5.8839 6.83335 6.0839 6.63335 6.2839L6.00002 6.94224C5.90835 7.0339 5.86669 7.14224 5.86669 7.27557C5.86669 7.34224 5.87502 7.40057 5.89169 7.46724C5.91669 7.5339 5.94169 7.5839 5.95835 7.6339C6.10835 7.9089 6.36669 8.26724 6.73335 8.70057C7.10835 9.1339 7.50835 9.57557 7.94169 10.0172C8.39169 10.4589 8.82502 10.8672 9.26669 11.2422C9.70002 11.6089 10.0584 11.8589 10.3417 12.0089C10.3834 12.0256 10.4334 12.0506 10.4917 12.0756C10.5584 12.1006 10.625 12.1089 10.7 12.1089C10.8417 12.1089 10.95 12.0589 11.0417 11.9672L11.675 11.3422C11.8834 11.1339 12.0834 10.9756 12.275 10.8756C12.4667 10.7589 12.6584 10.7006 12.8667 10.7006C13.025 10.7006 13.1917 10.7339 13.375 10.8089C13.5584 10.8839 13.75 10.9922 13.9584 11.1339L16.7167 13.0922C16.9334 13.2422 17.0834 13.4172 17.175 13.6256C17.2584 13.8339 17.3084 14.0422 17.3084 14.2756Z" stroke="white" stroke-width="1.2" stroke-miterlimit="10"/>
<path d="M14.4167 6.50065C14.4167 6.00065 14.0251 5.23398 13.4417 4.60898C12.9084 4.03398 12.2001 3.58398 11.5001 3.58398" stroke="white" stroke-width="1.2" stroke-linecap="round" stroke-linejoin="round"/>
<path d="M17.3334 6.50057C17.3334 3.27557 14.7251 0.667236 11.5001 0.667236" stroke="white" stroke-width="1.2" stroke-linecap="round" stroke-linejoin="round"/>
</svg>
