<svg width="30" height="30" viewBox="0 0 30 30" fill="none" xmlns="http://www.w3.org/2000/svg">
<rect width="30" height="30" rx="15" fill="#07C5AF" fill-opacity="0.1"/>
<path d="M6.65625 14.4437C7.15781 14.3381 7.81187 13.9206 7.82156 13.3781C7.82031 13.3331 7.81719 13.2881 7.81719 13.2422C7.81719 9.92843 10.9484 7.23906 14.8094 7.23906C17.2738 7.23906 19.4375 8.33499 20.6816 9.98937L19.795 10.3719C19.6766 10.6172 19.6669 10.9859 19.7872 11.3634L23.7841 14.2303L24.7431 9.23031C24.5794 8.86718 24.3291 8.61124 24.0834 8.52249L22.9881 8.99468C21.3128 6.62062 18.2788 5.03281 14.81 5.03281C9.66969 5.03281 5.47781 8.51406 5.2575 12.8797C5.25719 13.5434 5.75969 14.6309 6.65656 14.4422L6.65625 14.4437ZM23.3434 15.5566C22.8422 15.6634 22.1881 16.0784 22.1788 16.6222C22.1794 16.6675 22.1825 16.7119 22.1825 16.7581C22.1825 20.0728 19.0513 22.7612 15.1903 22.7612C12.7256 22.7612 10.5622 21.6641 9.31781 20.0097L10.2044 19.6269C10.3228 19.3834 10.3319 19.0141 10.2122 18.6366L6.21531 15.7684L5.25656 20.7716C5.42031 21.1344 5.67031 21.3894 5.91625 21.4791L7.01188 21.0072C8.68563 23.3809 11.7213 24.9687 15.19 24.9687C20.3303 24.9687 24.5222 21.4862 24.7425 17.1219C24.7431 16.4578 24.2406 15.3694 23.3434 15.5594" fill="#07C5AF"/>
</svg>
