<svg width="71" height="62" viewBox="0 0 71 62" fill="none" xmlns="http://www.w3.org/2000/svg">
<path d="M1.45023 61.7321C2.25117 61.7321 2.90046 61.1189 2.90046 60.3624C2.90046 59.606 2.25117 58.9928 1.45023 58.9928C0.649289 58.9928 0 59.606 0 60.3624C0 61.1189 0.649289 61.7321 1.45023 61.7321Z" fill="#FF00D6"/>
<path d="M1.45023 49.895C2.25117 49.895 2.90046 49.2818 2.90046 48.5254C2.90046 47.769 2.25117 47.1558 1.45023 47.1558C0.649289 47.1558 0 47.769 0 48.5254C0 49.2818 0.649289 49.895 1.45023 49.895Z" fill="#FF00D6"/>
<path d="M1.45023 38.0565C2.25117 38.0565 2.90046 37.4433 2.90046 36.6869C2.90046 35.9305 2.25117 35.3173 1.45023 35.3173C0.649289 35.3173 0 35.9305 0 36.6869C0 37.4433 0.649289 38.0565 1.45023 38.0565Z" fill="#FF00D6"/>
<path d="M1.45023 26.3168C2.25117 26.3168 2.90046 25.7036 2.90046 24.9472C2.90046 24.1907 2.25117 23.5775 1.45023 23.5775C0.649289 23.5775 0 24.1907 0 24.9472C0 25.7036 0.649289 26.3168 1.45023 26.3168Z" fill="#FF00D6"/>
<path d="M1.45023 14.4798C2.25117 14.4798 2.90046 13.8666 2.90046 13.1101C2.90046 12.3537 2.25117 11.7405 1.45023 11.7405C0.649289 11.7405 0 12.3537 0 13.1101C0 13.8666 0.649289 14.4798 1.45023 14.4798Z" fill="#FF00D6"/>
<path d="M1.45145 2.74014C2.25239 2.74014 2.90168 2.12693 2.90168 1.3705C2.90168 0.614064 2.25239 0.000854492 1.45145 0.000854492C0.65051 0.000854492 0.0012207 0.614064 0.0012207 1.3705C0.0012207 2.12693 0.65051 2.74014 1.45145 2.74014Z" fill="#FF00D6"/>
<path d="M68.5772 61.7312C69.3781 61.7312 70.0274 61.118 70.0274 60.3616C70.0274 59.6052 69.3781 58.9919 68.5772 58.9919C67.7763 58.9919 67.127 59.6052 67.127 60.3616C67.127 61.118 67.7763 61.7312 68.5772 61.7312Z" fill="#FF00D6"/>
<path d="M68.5772 49.8941C69.3781 49.8941 70.0274 49.2809 70.0274 48.5244C70.0274 47.768 69.3781 47.1548 68.5772 47.1548C67.7763 47.1548 67.127 47.768 67.127 48.5244C67.127 49.2809 67.7763 49.8941 68.5772 49.8941Z" fill="#FF00D6"/>
<path d="M68.5772 38.0557C69.3781 38.0557 70.0274 37.4425 70.0274 36.686C70.0274 35.9296 69.3781 35.3164 68.5772 35.3164C67.7763 35.3164 67.127 35.9296 67.127 36.686C67.127 37.4425 67.7763 38.0557 68.5772 38.0557Z" fill="#FF00D6"/>
<path d="M68.5772 26.3159C69.3781 26.3159 70.0274 25.7027 70.0274 24.9463C70.0274 24.1899 69.3781 23.5767 68.5772 23.5767C67.7763 23.5767 67.127 24.1899 67.127 24.9463C67.127 25.7027 67.7763 26.3159 68.5772 26.3159Z" fill="#FF00D6"/>
<path d="M68.5772 14.4788C69.3781 14.4788 70.0274 13.8656 70.0274 13.1091C70.0274 12.3527 69.3781 11.7395 68.5772 11.7395C67.7763 11.7395 67.127 12.3527 67.127 13.1091C67.127 13.8656 67.7763 14.4788 68.5772 14.4788Z" fill="#FF00D6"/>
<path d="M68.5775 2.73928C69.3785 2.73928 70.0278 2.12607 70.0278 1.36964C70.0278 0.613209 69.3785 0 68.5775 0C67.7766 0 67.1273 0.613209 67.1273 1.36964C67.1273 2.12607 67.7766 2.73928 68.5775 2.73928Z" fill="#FF00D6"/>
<path d="M55.2144 61.7312C56.0153 61.7312 56.6646 61.118 56.6646 60.3616C56.6646 59.6052 56.0153 58.9919 55.2144 58.9919C54.4134 58.9919 53.7642 59.6052 53.7642 60.3616C53.7642 61.118 54.4134 61.7312 55.2144 61.7312Z" fill="#FF00D6"/>
<path d="M55.2144 49.8941C56.0153 49.8941 56.6646 49.2809 56.6646 48.5244C56.6646 47.768 56.0153 47.1548 55.2144 47.1548C54.4134 47.1548 53.7642 47.768 53.7642 48.5244C53.7642 49.2809 54.4134 49.8941 55.2144 49.8941Z" fill="#FF00D6"/>
<path d="M55.2144 38.0557C56.0153 38.0557 56.6646 37.4425 56.6646 36.686C56.6646 35.9296 56.0153 35.3164 55.2144 35.3164C54.4134 35.3164 53.7642 35.9296 53.7642 36.686C53.7642 37.4425 54.4134 38.0557 55.2144 38.0557Z" fill="#FF00D6"/>
<path d="M55.2144 26.3159C56.0153 26.3159 56.6646 25.7027 56.6646 24.9463C56.6646 24.1899 56.0153 23.5767 55.2144 23.5767C54.4134 23.5767 53.7642 24.1899 53.7642 24.9463C53.7642 25.7027 54.4134 26.3159 55.2144 26.3159Z" fill="#FF00D6"/>
<path d="M55.2144 14.4788C56.0153 14.4788 56.6646 13.8656 56.6646 13.1091C56.6646 12.3527 56.0153 11.7395 55.2144 11.7395C54.4134 11.7395 53.7642 12.3527 53.7642 13.1091C53.7642 13.8656 54.4134 14.4788 55.2144 14.4788Z" fill="#FF00D6"/>
<path d="M55.2138 2.73928C56.0148 2.73928 56.6641 2.12607 56.6641 1.36964C56.6641 0.613209 56.0148 0 55.2138 0C54.4129 0 53.7636 0.613209 53.7636 1.36964C53.7636 2.12607 54.4129 2.73928 55.2138 2.73928Z" fill="#FF00D6"/>
<path d="M41.748 61.7312C42.5489 61.7312 43.1982 61.118 43.1982 60.3616C43.1982 59.6052 42.5489 58.9919 41.748 58.9919C40.947 58.9919 40.2977 59.6052 40.2977 60.3616C40.2977 61.118 40.947 61.7312 41.748 61.7312Z" fill="#FF00D6"/>
<path d="M41.748 49.8941C42.5489 49.8941 43.1982 49.2809 43.1982 48.5244C43.1982 47.768 42.5489 47.1548 41.748 47.1548C40.947 47.1548 40.2977 47.768 40.2977 48.5244C40.2977 49.2809 40.947 49.8941 41.748 49.8941Z" fill="#FF00D6"/>
<path d="M41.748 38.0557C42.5489 38.0557 43.1982 37.4425 43.1982 36.686C43.1982 35.9296 42.5489 35.3164 41.748 35.3164C40.947 35.3164 40.2977 35.9296 40.2977 36.686C40.2977 37.4425 40.947 38.0557 41.748 38.0557Z" fill="#FF00D6"/>
<path d="M41.748 26.3159C42.5489 26.3159 43.1982 25.7027 43.1982 24.9463C43.1982 24.1899 42.5489 23.5767 41.748 23.5767C40.947 23.5767 40.2977 24.1899 40.2977 24.9463C40.2977 25.7027 40.947 26.3159 41.748 26.3159Z" fill="#FF00D6"/>
<path d="M41.748 14.4788C42.5489 14.4788 43.1982 13.8656 43.1982 13.1091C43.1982 12.3527 42.5489 11.7395 41.748 11.7395C40.947 11.7395 40.2977 12.3527 40.2977 13.1091C40.2977 13.8656 40.947 14.4788 41.748 14.4788Z" fill="#FF00D6"/>
<path d="M41.7473 2.73928C42.5483 2.73928 43.1976 2.12607 43.1976 1.36964C43.1976 0.613209 42.5483 0 41.7473 0C40.9464 0 40.2971 0.613209 40.2971 1.36964C40.2971 2.12607 40.9464 2.73928 41.7473 2.73928Z" fill="#FF00D6"/>
<path d="M28.2816 61.7312C29.0825 61.7312 29.7318 61.118 29.7318 60.3616C29.7318 59.6052 29.0825 58.9919 28.2816 58.9919C27.4806 58.9919 26.8314 59.6052 26.8314 60.3616C26.8314 61.118 27.4806 61.7312 28.2816 61.7312Z" fill="#FF00D6"/>
<path d="M28.2816 49.8941C29.0825 49.8941 29.7318 49.2809 29.7318 48.5244C29.7318 47.768 29.0825 47.1548 28.2816 47.1548C27.4806 47.1548 26.8314 47.768 26.8314 48.5244C26.8314 49.2809 27.4806 49.8941 28.2816 49.8941Z" fill="#FF00D6"/>
<path d="M28.2816 38.0557C29.0825 38.0557 29.7318 37.4425 29.7318 36.686C29.7318 35.9296 29.0825 35.3164 28.2816 35.3164C27.4806 35.3164 26.8314 35.9296 26.8314 36.686C26.8314 37.4425 27.4806 38.0557 28.2816 38.0557Z" fill="#FF00D6"/>
<path d="M28.2816 26.3159C29.0825 26.3159 29.7318 25.7027 29.7318 24.9463C29.7318 24.1899 29.0825 23.5767 28.2816 23.5767C27.4806 23.5767 26.8314 24.1899 26.8314 24.9463C26.8314 25.7027 27.4806 26.3159 28.2816 26.3159Z" fill="#FF00D6"/>
<path d="M28.2816 14.4788C29.0825 14.4788 29.7318 13.8656 29.7318 13.1091C29.7318 12.3527 29.0825 11.7395 28.2816 11.7395C27.4806 11.7395 26.8314 12.3527 26.8314 13.1091C26.8314 13.8656 27.4806 14.4788 28.2816 14.4788Z" fill="#FF00D6"/>
<path d="M28.281 2.73928C29.0819 2.73928 29.7312 2.12607 29.7312 1.36964C29.7312 0.613209 29.0819 0 28.281 0C27.48 0 26.8307 0.613209 26.8307 1.36964C26.8307 2.12607 27.48 2.73928 28.281 2.73928Z" fill="#FF00D6"/>
<path d="M14.8153 61.7312C15.6163 61.7312 16.2656 61.118 16.2656 60.3616C16.2656 59.6052 15.6163 58.9919 14.8153 58.9919C14.0144 58.9919 13.3651 59.6052 13.3651 60.3616C13.3651 61.118 14.0144 61.7312 14.8153 61.7312Z" fill="#FF00D6"/>
<path d="M14.8153 49.8941C15.6163 49.8941 16.2656 49.2809 16.2656 48.5244C16.2656 47.768 15.6163 47.1548 14.8153 47.1548C14.0144 47.1548 13.3651 47.768 13.3651 48.5244C13.3651 49.2809 14.0144 49.8941 14.8153 49.8941Z" fill="#FF00D6"/>
<path d="M14.8153 38.0557C15.6163 38.0557 16.2656 37.4425 16.2656 36.686C16.2656 35.9296 15.6163 35.3164 14.8153 35.3164C14.0144 35.3164 13.3651 35.9296 13.3651 36.686C13.3651 37.4425 14.0144 38.0557 14.8153 38.0557Z" fill="#FF00D6"/>
<path d="M14.8153 26.3159C15.6163 26.3159 16.2656 25.7027 16.2656 24.9463C16.2656 24.1899 15.6163 23.5767 14.8153 23.5767C14.0144 23.5767 13.3651 24.1899 13.3651 24.9463C13.3651 25.7027 14.0144 26.3159 14.8153 26.3159Z" fill="#FF00D6"/>
<path d="M14.8153 14.4788C15.6163 14.4788 16.2656 13.8656 16.2656 13.1091C16.2656 12.3527 15.6163 11.7395 14.8153 11.7395C14.0144 11.7395 13.3651 12.3527 13.3651 13.1091C13.3651 13.8656 14.0144 14.4788 14.8153 14.4788Z" fill="#FF00D6"/>
<path d="M14.8146 2.73928C15.6155 2.73928 16.2648 2.12607 16.2648 1.36964C16.2648 0.613209 15.6155 0 14.8146 0C14.0137 0 13.3644 0.613209 13.3644 1.36964C13.3644 2.12607 14.0137 2.73928 14.8146 2.73928Z" fill="#FF00D6"/>
</svg>
